<?xml version="1.0" encoding="utf-8"?><svg version="1.1" id="Layer_1" xmlns="http://www.w3.org/2000/svg" xmlns:xlink="http://www.w3.org/1999/xlink" x="0px" y="0px" viewBox="0 0 122.88 88.43" style="enable-background:new 0 0 122.88 88.43" xml:space="preserve"><style type="text/css">.st0{fill-rule:evenodd;clip-rule:evenodd;}</style><g><path class="st0" d="M51.4,8.11c-4.18-2.8-10.5-4.54-18.98-5.24l-0.07-2.28l0.01,0c0.41-0.06,0.8-0.11,1.17-0.15 c0.32-0.04,0.72-0.09,1.2-0.13C36.81,0.1,38.98,0,41.21,0c9.53,0,16.73,1.61,21.57,4.81c11.87,7.84,8.19,24.52-0.21,33.76 C47.44,55.19,2.01,45.18,7.34,60.96c0.06,0.18,0.11,0.32,0.16,0.44c0.28,0.75,0.68,1.54,1.17,2.35L7,65.26 c-0.15-0.05-1.37-1.14-1.56-1.33c-0.47-0.45-0.92-0.94-1.33-1.45c-2.12-2.58-3.18-5.61-3.18-9.07c0-0.56,0.04-1.13,0.12-1.71 c0.08-0.58,0.19-1.14,0.33-1.72c2.64-11.75,30.2-12.25,41.75-16.57C54.53,29.14,64.96,17.18,51.4,8.11L51.4,8.11z M122.88,68.9 v19.53c-34.68,0-67.37,0-103.69,0V68.9C54.83,68.9,85.94,68.9,122.88,68.9L122.88,68.9z M9.88,88.43V68.9h6.49v19.53H9.88 L9.88,88.43z M0,88.43V68.9h7.07v19.53H0L0,88.43z"/></g></svg>